<!--?xml version="1.0" standalone="no"?-->              <svg id="sw-js-blob-svg" viewBox="0 0 100 100" xmlns="http://www.w3.org/2000/svg" version="1.1">                    <defs>                         <linearGradient id="sw-gradient" x1="0" x2="1" y1="1" y2="0">                            <stop id="stop1" stop-color="rgba(248, 117, 55, 1)" offset="0%"></stop>                            <stop id="stop2" stop-color="rgba(251, 168, 31, 1)" offset="100%"></stop>                        </linearGradient>                    </defs>                <path fill="url(#sw-gradient)" d="M24.3,-30.4C30.4,-23.9,33.5,-15.2,33.7,-7C33.9,1.2,31.2,8.8,27.7,16.8C24.1,24.8,19.6,33.1,12,37.9C4.5,42.8,-6,44.1,-14.8,40.9C-23.6,37.6,-30.6,29.7,-33.2,21.1C-35.9,12.6,-34.1,3.4,-31.4,-4.4C-28.6,-12.2,-24.9,-18.7,-19.5,-25.3C-14.1,-32,-7,-38.8,1,-40C9.1,-41.2,18.2,-36.9,24.3,-30.4Z" width="100%" height="100%" transform="translate(50 50)" stroke-width="0" style="transition: all 0.3s ease 0s;" stroke="url(#sw-gradient)"></path>              </svg>